<?xml version="1.0" encoding="utf-8"?>
<!-- Generator: Adobe Illustrator 24.1.0, SVG Export Plug-In . SVG Version: 6.00 Build 0)  -->
<svg version="1.1" id="Layer_1" xmlns="http://www.w3.org/2000/svg" xmlns:xlink="http://www.w3.org/1999/xlink" x="0px" y="0px"
	 viewBox="0 0 282.6 85.2" style="enable-background:new 0 0 282.6 85.2;" xml:space="preserve">
<style type="text/css">
	.st0{fill:#FFFFFF;}
	.st1{fill:#FFB81C;}
	.st2{fill:#003DA5;}
	.st3{fill:none;stroke:#FFB81C;stroke-miterlimit:10;}
</style>
<g>
	<g>
		<path class="st0" d="M183.5,30.8v-6.7c0-5.8-3.9-8.1-9.7-8.1h-9.8v38.1h6.3V38.9h3.2l4.9,15.1h6.4l-5.3-16.2
			C181.9,36.8,183.5,34.5,183.5,30.8z M177.3,29.9c0,2.7-1.4,3.5-3.5,3.5h-3.4v-12h3.4c2.2,0,3.5,0.8,3.5,3.5V29.9z"/>
		<path class="st0" d="M202.2,33.3l-4.4-2.5c-1.8-1-2.5-1.8-2.5-3.9v-2.6c0-2.5,1.4-3.2,3.2-3.2c1.8,0,3.2,0.9,3.2,3.2v5.3h6.1v-6.1
			c0-5.7-4.1-7.9-9.3-7.9h-0.1c-5.2,0-9.3,2.2-9.3,7.9v5c0,4,2.2,5.7,5.8,7.9l4.4,2.5c1.8,1,2.5,1.9,2.5,4V46c0,2.3-1.4,3.4-3.2,3.4
			c-1.8,0-3.2-1-3.2-3.4v-5.8h-6.1v6.6c0,5.9,3.6,8,9.3,8h0.1c5.8,0,9.3-2.2,9.3-8v-5.5C208,37,205.8,35.3,202.2,33.3z"/>
		<rect x="214.1" y="16" class="st0" width="6.3" height="38.1"/>
		<path class="st0" d="M237.2,16h-9.8v38.1h9.8c5.8,0,9.7-2.3,9.7-8.1V24C246.7,18.3,242.8,16,237.2,16z M240.4,45.1
			c0,2.7-1.4,3.5-3.5,3.5h-3.2v-27h3.2c2.2,0,3.5,0.8,3.5,3.5V45.1z"/>
		<polygon class="st0" points="259.6,48.6 259.6,37.6 268.3,37.6 268.3,31.9 259.6,31.9 259.6,21.5 269.9,21.5 269.9,16 253.3,16 
			253.3,54.1 270.1,54.1 270.1,48.6 		"/>
		<path class="st0" d="M97.8,30.8v-6.7c0-5.8-3.9-8.1-9.7-8.1h-9.8v38.1h6.3V38.9h3.2l4.9,15.1h6.4l-5.3-16.2
			C96.3,36.8,97.8,34.5,97.8,30.8z M91.6,29.9c0,2.7-1.4,3.5-3.5,3.5h-3.4v-12H88c2.2,0,3.5,0.8,3.5,3.5V29.9z"/>
		<rect x="104.5" y="16" class="st0" width="6.3" height="38.1"/>
		<polygon class="st0" points="126.4,44.2 121.9,16 115.6,16 122.7,54.1 129.8,54.1 137,16 130.8,16 		"/>
		<polygon class="st0" points="147.7,37.6 156.4,37.6 156.4,31.9 147.7,31.9 147.7,21.5 158.1,21.5 158.1,16 141.4,16 141.4,54.1 
			158.3,54.1 158.3,48.6 147.7,48.6 		"/>
	</g>
	<polygon class="st1" points="17.9,82.9 67.2,59.6 67.2,57.4 17.9,68.5 	"/>
	<polygon class="st0" points="67.2,0.7 0.5,10.3 0.5,72.5 67.2,57.4 	"/>
	<path class="st2" d="M56,46.4c0,5.8-3.9,8.1-9.7,8.1h-0.1c-5.8,0-9.7-2.2-9.7-8.1V23.6c0-5.7,3.9-8.1,9.7-8.1h0.1
		c5.8,0,9.7,2.5,9.7,8.1v6.8h-6.3v-5.9c0-2.6-1.4-3.5-3.4-3.5c-2,0-3.4,0.8-3.4,3.5v20.9c0,2.6,1.4,3.5,3.4,3.5
		c1.9,0,3.4-0.8,3.4-3.5v-6.8H56V46.4z"/>
	<path class="st2" d="M24.5,16v29.5c0,2.7-1.3,3.5-3.2,3.5s-3.2-0.8-3.2-3.5V16h-6.3v30.5c0,5.9,3.6,8.1,9.4,8.1h0.1
		c5.8,0,9.4-2.2,9.4-8.1V16H24.5z"/>
	<line class="st3" x1="280.5" y1="15.8" x2="280.5" y2="54.9"/>
</g>
</svg>
