<?xml version="1.0" encoding="utf-8"?>
<!-- Generator: Adobe Illustrator 24.0.3, SVG Export Plug-In . SVG Version: 6.00 Build 0)  -->
<svg version="1.1" id="Layer_1" xmlns="http://www.w3.org/2000/svg" xmlns:xlink="http://www.w3.org/1999/xlink" x="0px" y="0px"
	 viewBox="0 0 174.93 183.22" style="enable-background:new 0 0 174.93 183.22;" xml:space="preserve">
<style type="text/css">
	.st0{fill:#FFB71B;}
	.st1{fill:#003DA6;}
	.st2{fill:#FFFFFF;}
</style>
<g>
	<polygon class="st0" points="37.66,177.97 169.28,121.84 169.28,117.8 37.66,147.68 	"/>
	<polygon class="st1" points="7.85,154.45 169.28,117.8 169.28,4.32 7.85,28.02 	"/>
	<path class="st2" d="M104.78,93.92c0,10.35-6.71,14.18-16.87,14.18h-0.19c-10.16,0-16.87-3.74-16.87-14.18V53.67
		c0-9.97,6.71-14.18,16.87-14.18h0.19c10.16,0,16.87,4.22,16.87,14.18v12.27H93.67V55.4c0-4.7-2.3-6.13-5.85-6.13
		c-3.55,0-5.85,1.44-5.85,6.13v36.8c0,4.7,2.3,6.13,5.85,6.13c3.54,0,5.85-1.44,5.85-6.13V80.02h11.11V93.92z"/>
	<path class="st2" d="M49.16,40.26v51.94c0,4.79-2.11,6.13-5.75,6.13s-5.75-1.34-5.75-6.13V40.26H26.55v53.66
		c0,10.45,6.52,14.18,16.67,14.18h0.38c10.16,0,16.67-3.83,16.67-14.18V40.26H49.16z"/>
	<path class="st2" d="M142.63,78.87c4.6-2.01,7.28-6.04,7.28-12.46V54.44c0-10.16-6.71-14.18-16.87-14.18H115.7v67.08h11.12V80.6
		h5.56l8.53,26.74h11.33L142.63,78.87z M138.79,64.88c0,4.79-2.49,6.13-6.13,6.13h-5.84V50.03h5.84c3.64,0,6.13,1.34,6.13,6.13
		V64.88z"/>
</g>
</svg>
