<?xml version="1.0" encoding="utf-8"?>
<!-- Generator: Adobe Illustrator 22.1.0, SVG Export Plug-In . SVG Version: 6.00 Build 0)  -->
<svg version="1.1" id="Layer_1" xmlns="http://www.w3.org/2000/svg" xmlns:xlink="http://www.w3.org/1999/xlink" x="0px" y="0px"
	 viewBox="0 0 90.6 41.7" style="enable-background:new 0 0 90.6 41.7;" xml:space="preserve">
<style type="text/css">
	.st0{fill:#FDB816;}
	.st1{fill:#F0AB1E;}
	.st2{fill:#356CB5;}
</style>
<g>
	<path class="st0" d="M88.9,0.5h1.7v41.4h-1.7V0.5z"/>
</g>
<path class="st1" d="M0.3,0.6h7v30.6c0,3,1.2,4.4,3.7,4.4c2.5,0,3.7-1.5,3.7-4.4V0.6h7v30.3c0,7-4,10.8-10.7,10.8S0.3,37.9,0.3,30.9
	V0.6z"/>
<path class="st1" d="M42.5,14.1V11c0-3.4-1.6-4.9-3.4-4.9c-2.8,0-3.7,1.5-3.7,4.5v20.6c0,3,0.9,4.5,3.7,4.5c2.5,0,3.4-1.5,3.4-4.1
	v-4.9h7v4.7c0,5.7-3.4,10.4-10.3,10.4c-7.3,0-10.7-4.7-10.7-10.4V10.4C28.4,4.7,31.8,0,39.1,0c7,0,10.3,5.1,10.3,11.1v3H42.5z"/>
<path class="st2" d="M63.2,0.5h-7.1v41.2h7.1L63.2,0.5z M73.1,23c2.4-1.1,5-3.8,5-10.4c0-8.8-4-12.1-12-12.1h-2.6l1.1,7.1l4.2-6.5
	l0.1,0L66.3,9l7-4.3l0,0.1l-5.8,5.9l9.8-1.2l0,0.1L68,12.6l9.3,3.2l0,0.1l-9.8-1.3l5.8,5.9l0,0l-7-4.3l2.6,7.8l0,0l-4.2-6.5
	l-1.2,7.2c1.2,0,2.5-0.1,3.4-0.2l5,17.1h7.2L73.1,23z"/>
</svg>
