<?xml version="1.0" encoding="utf-8"?>
<!-- Generator: Adobe Illustrator 22.1.0, SVG Export Plug-In . SVG Version: 6.00 Build 0)  -->
<svg version="1.1" id="Layer_1" xmlns="http://www.w3.org/2000/svg" xmlns:xlink="http://www.w3.org/1999/xlink" x="0px" y="0px"
	 viewBox="0 0 173.2 92.6" style="enable-background:new 0 0 173.2 92.6;" xml:space="preserve">
<style type="text/css">
	.st0{fill:#FFFFFF;}
</style>
<g>
	<path class="st0" d="M0,1.2h15.4v67.6c0,6.6,2.6,9.8,8.2,9.8c5.6,0,8.2-3.2,8.2-9.8V1.2h15.4v67c0,15.4-8.9,23.8-23.6,23.8
		C8.9,92,0,83.6,0,68.2V1.2z"/>
	<path class="st0" d="M93,31.1v-6.9c0-7.6-3.5-10.8-7.4-10.8c-6.2,0-8.2,3.2-8.2,9.9v45.4c0,6.7,2,9.9,8.2,9.9
		c5.6,0,7.4-3.2,7.4-9.1V58.8h15.4v10.3c0,12.6-7.4,22.9-22.8,22.9C69.5,92,62,81.7,62,69.1V22.9C62,10.3,69.5,0,85.6,0
		c15.4,0,22.8,11.2,22.8,24.6v6.6H93z"/>
</g>
<g>
	<path class="st0" d="M138.3,1.5l-15.6,0v90.9h15.6V1.5z M160,51.2c5.3-2.4,10.9-8.3,10.9-22.9c0-19.4-8.9-26.8-26.4-26.8h-5.7
		l2.5,15.8l9.3-14.4l-5.7,17.2l15.5-9.4l-12.6,13l22.1-2.6l-21.1,7.1l20.3,7.2l-21.3-2.7l12.6,13l-15.5-9.4l5.7,17.2l-9.2-14.2
		l-2.6,15.8c2.6,0,5.6-0.1,7.5-0.4l11.1,37.6h15.9L160,51.2z"/>
</g>
</svg>
