<?xml version="1.0" encoding="utf-8"?>
<!-- Generator: Adobe Illustrator 22.1.0, SVG Export Plug-In . SVG Version: 6.00 Build 0)  -->
<!DOCTYPE svg PUBLIC "-//W3C//DTD SVG 1.1//EN" "http://www.w3.org/Graphics/SVG/1.1/DTD/svg11.dtd">
<svg version="1.1" id="Layer_1" xmlns="http://www.w3.org/2000/svg" xmlns:xlink="http://www.w3.org/1999/xlink" x="0px" y="0px"
	 viewBox="0 0 476.2 91.8" style="enable-background:new 0 0 476.2 91.8;" xml:space="preserve">
<style type="text/css">
	.st0{fill:#FFFFFF;}
	.st1{fill:#F1AB00;}
</style>
<title>ucr_logo</title>
<path class="st0" d="M159,0.2v10.2c0,1.7,1.2,3.1,3.4,3.1s3.4-1.4,3.4-3.1V0.2h1.6v10.1c0,2.9-2.1,4.6-5.1,4.6s-5-1.7-5-4.6V0.2H159
	z"/>
<path class="st0" d="M174.3,14.6V0.2h2.3l6.3,11.1h0.1V0.2h1.4v14.4h-1.3l-7.3-12.8l0,0v12.8H174.3z"/>
<path class="st0" d="M193.1,0.2v14.4h-1.6V0.2H193.1z"/>
<path class="st0" d="M198.5,0.2h1.6l3.6,11.8l0,0l3.6-11.8h1.6l-4.5,14.4H203L198.5,0.2z"/>
<path class="st0" d="M222.6,0.2v1.4h-7v4.8h5v1.4h-5v5.5h7.4v1.4h-9V0.2H222.6z"/>
<path class="st0" d="M228.5,14.6V0.2h4.6c3.1,0,4.8,1.4,4.8,3.8c0.1,1.8-1.1,3.3-2.9,3.8l3.1,6.9h-1.7l-2.9-6.5h-3.4v6.5H228.5z
	 M230.1,6.7h2.9c2.2,0,3.4-0.8,3.4-2.6S235,1.6,233,1.6h-2.9L230.1,6.7z"/>
<path class="st0" d="M251.2,3.9c-0.4-1.5-1.8-2.6-3.4-2.5c-1.7,0-2.7,0.8-2.7,2.2c0,3.2,8.1,2.3,8.1,7c0,2.1-1.2,4.2-4.8,4.2
	c-3.2,0-4.4-2-5.1-3.8l1.5-0.5c0.5,1.7,2,2.9,3.8,2.9c2.1,0,3.2-1.1,3.2-2.6c0-3.7-8.1-2.6-8.1-7.1c0-2.1,1.7-3.7,4.3-3.7
	c2.2-0.1,4.2,1.4,4.7,3.5L251.2,3.9z"/>
<path class="st0" d="M261.1,0.2v14.4h-1.6V0.2H261.1z"/>
<path class="st0" d="M272.5,1.6v13h-1.6v-13h-4.3V0.2h10.2v1.4H272.5z"/>
<path class="st0" d="M284.5,8.5L280,0.2h1.8l3.5,6.6l3.5-6.6h1.8l-4.4,8.3v6.1h-1.6V8.5z"/>
<path class="st0" d="M308.6,0c3.5,0,5.6,2.6,5.6,7.4s-2.1,7.4-5.6,7.4s-5.6-2.6-5.6-7.4S305,0,308.6,0z M308.6,13.4c2.5,0,4-1.9,4-6
	s-1.5-6-4-6s-4,2-4,6S306,13.4,308.6,13.4z"/>
<path class="st0" d="M328.3,0.2v1.4h-6.9v4.8h5.1v1.4h-5.1v6.9h-1.6V0.2H328.3z"/>
<path class="st0" d="M351.3,10.3c-0.6,2.7-2.1,4.5-5.1,4.5c-3.2,0-5.5-2.4-5.5-7.4c0-4.7,2-7.4,5.5-7.4c2.7,0,4.2,1.6,4.9,4.2
	l-1.5,0.4c-0.5-2-1.4-3.3-3.6-3.3s-3.7,1.9-3.7,6s1.6,6,4,6c2.2,0,3.1-1.7,3.5-3.4L351.3,10.3z"/>
<path class="st0" d="M355.1,14.6l4.4-14.4h2.4l4.4,14.4h-1.7l-1.4-4.5h-5.2l-1.4,4.5H355.1z M358.5,8.7h4.4l-2.1-7.4h-0.2L358.5,8.7
	z"/>
<path class="st0" d="M371.5,14.6V0.2h1.6v13h6.8v1.4L371.5,14.6z"/>
<path class="st0" d="M387,0.2v14.4h-1.6V0.2H387z"/>
<path class="st0" d="M402.6,0.2v1.4h-6.9v4.8h5.1v1.4h-5.1v6.9h-1.6V0.2H402.6z"/>
<path class="st0" d="M412.3,0c3.5,0,5.6,2.6,5.6,7.4s-2.1,7.4-5.6,7.4s-5.6-2.6-5.6-7.4S408.8,0,412.3,0z M412.3,13.4
	c2.5,0,4-1.9,4-6s-1.5-6-4-6s-4,2-4,6S409.8,13.4,412.3,13.4z"/>
<path class="st0" d="M423.5,14.6V0.2h4.6c3.1,0,4.8,1.4,4.8,3.8c0.1,1.8-1.1,3.3-2.9,3.8l3,6.9h-1.7l-2.9-6.5h-3.4v6.5H423.5z
	 M425.1,6.7h2.9c2.2,0,3.4-0.8,3.4-2.6S430,1.6,428,1.6h-2.9L425.1,6.7z"/>
<path class="st0" d="M439.4,14.6V0.2h2.3l6.3,11.1h0.1V0.2h1.4v14.4h-1.3L441,1.8l0,0v12.8H439.4z"/>
<path class="st0" d="M458.3,0.2v14.4h-1.6V0.2H458.3z"/>
<path class="st0" d="M463.8,14.6l4.4-14.4h2.4l4.4,14.4h-1.7l-1.4-4.5h-5.2l-1.4,4.5H463.8z M467.3,8.7h4.4l-2.1-7.4h-0.2L467.3,8.7
	z"/>
<path class="st0" d="M157.4,90.9V19.3h12.3v71.6H157.4z"/>
<path class="st0" d="M208.2,19.3h12.1l-15,71.6H193l-15-71.6h12.1l8.9,49.7h0.2L208.2,19.3z"/>
<path class="st0" d="M228.3,90.9V19.3h32.9V30h-20.6v18.4h15.9v10.7h-15.9v21h22v10.7H228.3z"/>
<path class="st0" d="M284.5,90.9h-12.3V19.3h17.2c13.8,0,20.8,5.9,20.8,21.1c0,11.5-4.5,16.2-8.6,18L312,90.8h-12.5l-8.7-29.6
	c-2.1,0.2-4.2,0.3-6.3,0.3V90.9z M284.5,51.4h4.4c6.6,0,9.1-2.5,9.1-11s-2.5-11-9.1-11h-4.4V51.4z"/>
<path class="st0" d="M343.2,36.9c-0.5-6.1-3.8-7.9-6.5-7.9c-4,0-6.1,2.6-6.1,7c0,12.2,25,18,25,37.5c0,11.8-7.9,18.3-19.4,18.3
	s-17.9-9.1-18.4-19.8l11.7-1.7c0.5,7.2,3.4,10.8,7.3,10.8c4.3,0,7.1-2.3,7.1-6.5c0-14.2-25-17.9-25-38.5c0-11.4,6.9-17.8,19-17.8
	c10,0,16,7.2,17,17.3L343.2,36.9z"/>
<path class="st0" d="M366.1,90.9V19.3h12.3v71.6H366.1z"/>
<path class="st0" d="M392.1,19.3h18.2c12.7,0,19.4,6.9,19.4,21.6v28.3c0,14.7-6.7,21.6-19.4,21.6h-18.2V19.3z M404.4,80.7h4.3
	c6.5,0,8.8-2.5,8.8-10V39.4c0-7.5-2.3-10-8.8-10h-4.3V80.7z"/>
<path class="st0" d="M441.9,90.9V19.3h32.9V30h-20.6v18.4H470v10.7h-15.9v21h22v10.7H441.9z"/>
<path class="st1" d="M0,19.2h12.2v53.4c0,5.2,2.1,7.7,6.5,7.7s6.5-2.6,6.5-7.7V19.2h12.1v52.9c0,12.2-7,18.8-18.6,18.8
	S0,84.3,0,72.1V19.2z"/>
<path class="st1" d="M73.5,42.8v-5.5c0-6-2.7-8.5-5.9-8.5c-4.9,0-6.5,2.5-6.5,7.8v35.9c0,5.3,1.6,7.8,6.5,7.8c4.4,0,5.9-2.6,5.9-7.2
	v-8.5h12.2v8.1c0,10-5.9,18.1-18,18.1C54.9,91,49,82.8,49,72.8V36.4c0-10,5.9-18.1,18.6-18.1c12.2,0,18,8.8,18,19.4v5.2H73.5z"/>
<path class="st0" d="M113.5,0.1H97.8v90.9h15.6V53.7 M135.2,49.8c5.3-2.4,10.9-8.3,10.9-22.9c0-19.4-8.9-26.8-26.4-26.8H114
	l2.5,15.8l9.4-14.4l-5.7,17.2l15.5-9.4l-12.7,13l22.1-2.6L124,26.8l20.3,7.2L123,31.2l12.6,13l-15.5-9.4l5.7,17.2l-9.2-14.2
	L114,53.7c2.5,0,5-0.1,7.5-0.4l11.1,37.6h15.9L135.2,49.8z"/>
<path class="st1" d="M78.4,90.8"/>
</svg>
