<?xml version="1.0" encoding="utf-8"?>
<!-- Generator: Adobe Illustrator 24.0.3, SVG Export Plug-In . SVG Version: 6.00 Build 0)  -->
<svg version="1.1" id="Layer_1" xmlns="http://www.w3.org/2000/svg" xmlns:xlink="http://www.w3.org/1999/xlink" x="0px" y="0px"
	 viewBox="0 0 471.13 154.95" style="enable-background:new 0 0 471.13 154.95;" xml:space="preserve">
<style type="text/css">
	.st0{fill:#003DA6;}
	.st1{fill:#FFB71B;}
	.st2{fill:#FFFFFF;}
</style>
<g>
	<g>
		<path class="st0" d="M315.46,57.94V46.46c0-9.74-6.43-13.6-16.17-13.6h-16.63v64.33h10.66V71.55h5.33l8.18,25.64h10.84l-9.19-27.3
			C312.89,67.96,315.46,64.1,315.46,57.94z M304.8,56.47c0,4.6-2.39,5.88-5.88,5.88h-5.61V42.23h5.61c3.49,0,5.88,1.29,5.88,5.88
			V56.47z"/>
		<path class="st0" d="M346.89,61.99l-7.54-4.23c-3.03-1.75-4.14-3.22-4.14-6.52v-4.41c0-4.04,2.3-5.51,5.42-5.51
			c3.12,0,5.42,1.47,5.42,5.51v9.01h10.48V45.35c0-9.56-6.99-13.23-15.81-13.23h-0.18c-8.82,0-15.81,3.68-15.81,13.23v8.46
			c0,6.71,3.58,9.65,9.83,13.23l7.44,4.23c3.22,1.75,4.23,3.4,4.23,6.71v5.05c0,3.95-2.3,5.7-5.51,5.7c-3.22,0-5.51-1.75-5.51-5.7
			v-9.74h-10.48V84.5c0,10.02,6.16,13.42,15.9,13.42h0.18c9.74,0,15.9-3.49,15.9-13.42v-9.28
			C356.72,68.33,353.05,65.48,346.89,61.99z"/>
		<rect x="367.11" y="32.86" class="st0" width="10.66" height="64.33"/>
		<path class="st0" d="M406.07,32.86h-16.45v64.33h16.45c9.74,0,16.18-3.86,16.18-13.6V46.46
			C422.24,36.72,415.81,32.86,406.07,32.86z M411.58,81.93c0,4.6-2.39,5.88-5.88,5.88h-5.42V42.23h5.42c3.49,0,5.88,1.29,5.88,5.88
			V81.93z"/>
		<polygon class="st0" points="444.02,87.81 444.02,69.25 458.73,69.25 458.73,59.88 444.02,59.88 444.02,42.23 461.57,42.23 
			461.57,32.86 433.36,32.86 433.36,97.19 461.85,97.19 461.85,87.81 		"/>
		<path class="st0" d="M170.73,57.94V46.46c0-9.74-6.43-13.6-16.18-13.6h-16.63v64.33h10.66V71.55h5.33l8.18,25.64h10.84l-9.19-27.3
			C168.16,67.96,170.73,64.1,170.73,57.94z M160.07,56.47c0,4.6-2.39,5.88-5.88,5.88h-5.61V42.23h5.61c3.49,0,5.88,1.29,5.88,5.88
			V56.47z"/>
		<rect x="182.03" y="32.86" class="st0" width="10.66" height="64.33"/>
		<polygon class="st0" points="218.98,80.55 211.53,32.86 200.69,32.86 212.82,97.19 224.58,97.19 236.71,32.86 226.42,32.86 		"/>
		<polygon class="st0" points="255,69.25 269.7,69.25 269.7,59.88 255,59.88 255,42.23 272.55,42.23 272.55,32.86 244.34,32.86 
			244.34,97.19 272.83,97.19 272.83,87.81 255,87.81 		"/>
	</g>
	<polygon class="st1" points="35.67,145.81 118.93,106.48 118.93,102.6 35.67,121.5 	"/>
	<polygon class="st0" points="118.93,7.04 6.18,23.18 6.18,128.2 118.93,102.6 	"/>
	<path class="st2" d="M100.11,84.37c0,9.94-6.44,13.62-16.19,13.62h-0.18c-9.75,0-16.19-3.59-16.19-13.62V45.73
		c0-9.57,6.44-13.61,16.19-13.61h0.18c9.75,0,16.19,4.05,16.19,13.61v11.78H89.44V47.39c0-4.51-2.21-5.89-5.61-5.89
		c-3.4,0-5.61,1.38-5.61,5.89v35.33c0,4.51,2.21,5.89,5.61,5.89c3.4,0,5.61-1.38,5.61-5.89V71.03h10.67V84.37z"/>
	<path class="st2" d="M46.72,32.85v49.86c0,4.6-2.02,5.89-5.52,5.89s-5.52-1.29-5.52-5.89V32.85H25v51.52
		c0,10.03,6.25,13.62,16.01,13.62h0.37c9.75,0,16.01-3.68,16.01-13.62V32.85H46.72z"/>
</g>
</svg>
