<?xml version="1.0" encoding="utf-8"?>
<!-- Generator: Adobe Illustrator 24.1.0, SVG Export Plug-In . SVG Version: 6.00 Build 0)  -->
<svg version="1.1" id="Layer_1" xmlns="http://www.w3.org/2000/svg" xmlns:xlink="http://www.w3.org/1999/xlink" x="0px" y="0px"
	 viewBox="0 0 280 303.4" style="enable-background:new 0 0 280 303.4;" xml:space="preserve">
<style type="text/css">
	.st0{fill:#FFB81C;}
	.st1{fill:#FFFFFF;}
	.st2{fill:#003DA5;}
</style>
<g>
	<polygon class="st0" points="52.9,298.9 278.2,203.2 278.2,196.3 52.9,247.4 	"/>
	<polygon class="st1" points="1.8,258.5 278.2,196.3 278.2,2 1.8,42.5 	"/>
	<path class="st2" d="M167.6,155.5c0,18-11.8,24.2-28.7,24.2h-0.3c-17.6,0-28.7-6.2-28.7-24.2V86.4c0-16.9,11.8-24.2,28.7-24.2h0.3
		c17.6,0,28.7,7.3,28.7,24.2v21.1h-19v-18c0-8.3-3.8-10.4-10-10.4c-6.2,0-10,2.4-10,10.4v62.9c0,8.3,3.8,10.4,10,10.4
		c6.2,0,10-2.4,10-10.4v-21.1h19V155.5z"/>
	<path class="st2" d="M72.3,63.2v89.2c0,8.3-3.5,10.4-9.7,10.4s-9.7-2.4-9.7-10.4V63.2h-19v91.6c0,18,11.4,24.2,28.7,24.2h0.7
		c17.6,0,28.7-6.6,28.7-24.2V63.2H72.3L72.3,63.2z"/>
	<path class="st2" d="M232.3,129.2c7.6-3.5,12.4-10.4,12.4-21.4V87.1c0-17.6-11.8-24.2-28.7-24.2h-29.4V178h18.7v-45.6h9.7l14.9,46
		h19.4L232.3,129.2z M225.7,105.7c0,8.3-4.1,10.4-10.4,10.4h-10V80.5h10c6.2,0,10.4,2.4,10.4,10.4V105.7z"/>
</g>
</svg>
