<?xml version="1.0" encoding="utf-8"?>
<!-- Generator: Adobe Illustrator 22.1.0, SVG Export Plug-In . SVG Version: 6.00 Build 0)  -->
<svg version="1.1" id="Layer_1" xmlns="http://www.w3.org/2000/svg" xmlns:xlink="http://www.w3.org/1999/xlink" x="0px" y="0px"
	 viewBox="0 0 225.6 41.7" style="enable-background:new 0 0 225.6 41.7;" xml:space="preserve">
<style type="text/css">
	.st0{fill:#356CB5;}
	.st1{fill:#F0AB1E;}
</style>
<path class="st0" d="M73.1,0.6v4.6c0,0.8,0.5,1.4,1.6,1.4c1,0,1.6-0.6,1.6-1.4V0.6H77v4.6c0,1.3-0.9,2.1-2.3,2.1
	c-1.3,0-2.3-0.8-2.3-2.1V0.6H73.1z"/>
<path class="st0" d="M80.1,7.1V0.6h1l2.8,5h0v-5h0.6v6.5H84l-3.3-5.8h0v5.8H80.1z"/>
<path class="st0" d="M88.6,0.6v6.5h-0.7V0.6H88.6z"/>
<path class="st0" d="M91.1,0.6h0.7l1.6,5.3h0L95,0.6h0.7l-2,6.5h-0.7L91.1,0.6z"/>
<path class="st0" d="M101.9,0.6v0.6h-3.2v2.2h2.3V4h-2.3v2.5h3.4v0.6H98V0.6H101.9z"/>
<path class="st0" d="M104.6,7.1V0.6h2.1c1.4,0,2.2,0.6,2.2,1.7c0,0.9-0.5,1.4-1.3,1.7l1.4,3.1h-0.8l-1.3-3h-1.5v3H104.6z M105.3,3.5
	h1.3c1,0,1.5-0.4,1.5-1.2c0-0.9-0.6-1.1-1.5-1.1h-1.3V3.5z"/>
<path class="st0" d="M114.9,2.2c-0.2-0.6-0.7-1.1-1.5-1.1c-0.8,0-1.2,0.4-1.2,1c0,1.4,3.7,1.1,3.7,3.2c0,0.9-0.5,1.9-2.2,1.9
	c-1.4,0-2-0.9-2.3-1.7l0.7-0.2c0.3,0.7,0.7,1.3,1.7,1.3c1,0,1.4-0.5,1.4-1.2c0-1.7-3.7-1.2-3.7-3.2c0-0.9,0.8-1.7,2-1.7
	c1,0,1.8,0.5,2.1,1.6L114.9,2.2z"/>
<path class="st0" d="M119.4,0.6v6.5h-0.7V0.6H119.4z"/>
<path class="st0" d="M124.5,1.2v5.9h-0.7V1.2h-2V0.6h4.6v0.6H124.5z"/>
<path class="st0" d="M130,4.3l-2-3.8h0.8l1.6,3l1.6-3h0.8l-2,3.8v2.7H130V4.3z"/>
<path class="st0" d="M140.9,0.5c1.6,0,2.5,1.2,2.5,3.3c0,2.2-0.9,3.3-2.5,3.3c-1.6,0-2.5-1.2-2.5-3.3C138.3,1.6,139.3,0.5,140.9,0.5
	z M140.9,6.6c1.1,0,1.8-0.9,1.8-2.7c0-1.9-0.7-2.7-1.8-2.7c-1.1,0-1.8,0.9-1.8,2.7C139,5.7,139.7,6.6,140.9,6.6z"/>
<path class="st0" d="M149.8,0.6v0.6h-3.1v2.2h2.3V4h-2.3v3.1h-0.7V0.6H149.8z"/>
<path class="st0" d="M160.2,5.1c-0.3,1.2-1,2-2.3,2c-1.5,0-2.5-1.1-2.5-3.3c0-2.1,0.9-3.3,2.5-3.3c1.2,0,1.9,0.7,2.2,1.9l-0.7,0.2
	c-0.2-0.9-0.7-1.5-1.6-1.5c-0.9,0-1.7,0.9-1.7,2.7c0,1.9,0.7,2.7,1.8,2.7c1,0,1.4-0.8,1.6-1.6L160.2,5.1z"/>
<path class="st0" d="M161.9,7.1l2-6.5h1.1l2,6.5h-0.8l-0.6-2h-2.3l-0.6,2H161.9z M163.5,4.4h2l-0.9-3.4h-0.1L163.5,4.4z"/>
<path class="st0" d="M169.3,7.1V0.6h0.7v5.9h3.1v0.6H169.3z"/>
<path class="st0" d="M176.4,0.6v6.5h-0.7V0.6H176.4z"/>
<path class="st0" d="M183.4,0.6v0.6h-3.1v2.2h2.3V4h-2.3v3.1h-0.7V0.6H183.4z"/>
<path class="st0" d="M187.8,0.5c1.6,0,2.5,1.2,2.5,3.3c0,2.2-0.9,3.3-2.5,3.3c-1.6,0-2.5-1.2-2.5-3.3C185.3,1.6,186.2,0.5,187.8,0.5
	z M187.8,6.6c1.1,0,1.8-0.9,1.8-2.7c0-1.9-0.7-2.7-1.8-2.7c-1.1,0-1.8,0.9-1.8,2.7C186,5.7,186.7,6.6,187.8,6.6z"/>
<path class="st0" d="M192.9,7.1V0.6h2.1c1.4,0,2.2,0.6,2.2,1.7c0,0.9-0.5,1.4-1.3,1.7l1.4,3.1h-0.8l-1.3-3h-1.5v3H192.9z M193.6,3.5
	h1.3c1,0,1.5-0.4,1.5-1.2c0-0.9-0.6-1.1-1.5-1.1h-1.3V3.5z"/>
<path class="st0" d="M200.1,7.1V0.6h1l2.8,5h0v-5h0.6v6.5h-0.6l-3.3-5.8h0v5.8H200.1z"/>
<path class="st0" d="M208.7,0.6v6.5h-0.7V0.6H208.7z"/>
<path class="st0" d="M211.2,7.1l2-6.5h1.1l2,6.5h-0.8l-0.6-2h-2.3l-0.6,2H211.2z M212.7,4.4h2l-0.9-3.4h-0.1L212.7,4.4z"/>
<path class="st0" d="M72.4,41.7V9.2H78v32.5H72.4z"/>
<path class="st0" d="M95.4,9.2h5.5l-6.8,32.5h-5.6L81.8,9.2h5.5l4,22.5h0.1L95.4,9.2z"/>
<path class="st0" d="M104.6,41.7V9.2h14.9v4.9h-9.4v8.4h7.2v4.9h-7.2v9.5h10v4.9H104.6z"/>
<path class="st0" d="M130,41.7h-5.6V9.2h7.8c6.2,0,9.4,2.7,9.4,9.6c0,5.2-2,7.3-3.9,8.2l4.7,14.7h-5.7l-4-13.4
	c-0.7,0.1-1.9,0.1-2.9,0.1V41.7z M130,23.8h2c3,0,4.1-1.1,4.1-5c0-3.9-1.1-5-4.1-5h-2V23.8z"/>
<path class="st0" d="M156.7,17.2c-0.2-2.8-1.7-3.6-3-3.6c-1.8,0-2.8,1.2-2.8,3.2c0,5.5,11.3,8.2,11.3,17c0,5.4-3.6,8.3-8.8,8.3
	c-5.2,0-8.1-4.1-8.4-9l5.3-0.8c0.2,3.3,1.5,4.9,3.3,4.9c1.9,0,3.2-1,3.2-3c0-6.4-11.3-8.1-11.3-17.4c0-5.2,3.1-8.1,8.6-8.1
	c4.5,0,7.2,3.3,7.7,7.9L156.7,17.2z"/>
<path class="st0" d="M167.1,41.7V9.2h5.6v32.5H167.1z"/>
<path class="st0" d="M178.9,9.2h8.3c5.8,0,8.8,3.1,8.8,9.8v12.9c0,6.7-3.1,9.8-8.8,9.8h-8.3V9.2z M184.4,37.1h1.9c3,0,4-1.1,4-4.5
	V18.3c0-3.4-1-4.5-4-4.5h-1.9V37.1z"/>
<path class="st0" d="M201.4,41.7V9.2h14.9v4.9H207v8.4h7.2v4.9H207v9.5h10v4.9H201.4z"/>
<path class="st1" d="M1,9.2h5.5v24.2c0,2.4,0.9,3.5,2.9,3.5s2.9-1.2,2.9-3.5V9.2h5.5v24c0,5.5-3.2,8.5-8.4,8.5c-5.2,0-8.4-3-8.4-8.5
	V9.2z"/>
<path class="st1" d="M34.3,19.9v-2.5c0-2.7-1.2-3.9-2.7-3.9c-2.2,0-2.9,1.2-2.9,3.6v16.3c0,2.4,0.7,3.6,2.9,3.6c2,0,2.7-1.2,2.7-3.2
	v-3.9h5.5v3.7c0,4.5-2.7,8.2-8.2,8.2c-5.8,0-8.4-3.7-8.4-8.2V17c0-4.5,2.7-8.2,8.4-8.2c5.5,0,8.2,4,8.2,8.8v2.4H34.3z"/>
<path class="st0" d="M52.4,0h-7.2v41.6h7.2L52.4,0z M62.4,22.8c2.4-1.1,5-3.8,5-10.5C67.4,3.4,63.3,0,55.3,0h-2.6l1.2,7.2l4.2-6.6
	l0.1,0l-2.7,7.9l7.1-4.3l0,0l-5.8,5.9L66.7,9l0,0.1l-9.4,3.2l9.4,3.3l0,0.1l-9.9-1.3l5.8,5.9l0,0l-7.1-4.3l2.7,7.9l0,0l-4.2-6.5
	l-1.2,7.2c1.2,0,2.6-0.1,3.4-0.2l5.1,17.2h7.3L62.4,22.8z"/>
<g>
	<path class="st1" d="M223.9,0.5h1.7V43h-1.7V0.5z"/>
</g>
</svg>
